<svg width="80" height="83" viewBox="0 0 80 83" fill="none" xmlns="http://www.w3.org/2000/svg">
<mask id="path-1-outside-1_8_45" maskUnits="userSpaceOnUse" x="0" y="0" width="80" height="83" fill="black">
<rect fill="white" width="80" height="83"/>
<path fill-rule="evenodd" clip-rule="evenodd" d="M36.3414 10C21.7935 10 10 21.7935 10 36.3415C10 50.8894 21.7935 62.6829 36.3414 62.6829H43.6585C45.5405 62.6829 47.3763 62.4855 49.1465 62.1104C49.1469 62.2958 49.1482 62.4197 49.1519 62.5303C49.3283 67.7901 53.5513 72.0131 58.8111 72.1895C58.9787 72.1951 59.1768 72.1951 59.5731 72.1951C59.9694 72.1951 60.1676 72.1951 60.3351 72.1895C65.5949 72.0131 69.8179 67.7901 69.9943 62.5303C69.9999 62.3627 69.9999 62.1646 69.9999 61.7683V42.378C69.9999 41.9817 69.9999 41.7836 69.9943 41.6161C69.9737 41.0023 69.8981 40.4027 69.7721 39.822C69.9224 38.6831 70 37.5214 70 36.3415C70 21.7935 58.2065 10 43.6585 10H36.3414Z"/>
</mask>
<path fill-rule="evenodd" clip-rule="evenodd" d="M36.3414 10C21.7935 10 10 21.7935 10 36.3415C10 50.8894 21.7935 62.6829 36.3414 62.6829H43.6585C45.5405 62.6829 47.3763 62.4855 49.1465 62.1104C49.1469 62.2958 49.1482 62.4197 49.1519 62.5303C49.3283 67.7901 53.5513 72.0131 58.8111 72.1895C58.9787 72.1951 59.1768 72.1951 59.5731 72.1951C59.9694 72.1951 60.1676 72.1951 60.3351 72.1895C65.5949 72.0131 69.8179 67.7901 69.9943 62.5303C69.9999 62.3627 69.9999 62.1646 69.9999 61.7683V42.378C69.9999 41.9817 69.9999 41.7836 69.9943 41.6161C69.9737 41.0023 69.8981 40.4027 69.7721 39.822C69.9224 38.6831 70 37.5214 70 36.3415C70 21.7935 58.2065 10 43.6585 10H36.3414Z" fill="#380303"/>
<path d="M49.1465 62.1104L59.1465 62.0874L59.1181 49.7751L47.0733 52.3277L49.1465 62.1104ZM49.1519 62.5303L59.1463 62.1951L59.1463 62.1951L49.1519 62.5303ZM58.8111 72.1895L59.1463 62.1951L59.1463 62.1951L58.8111 72.1895ZM60.3351 72.1895L59.9999 62.1951L59.9999 62.1951L60.3351 72.1895ZM69.9943 62.5303L79.9887 62.8654L79.9887 62.8652L69.9943 62.5303ZM69.9943 41.6161L59.9999 41.9512L59.9999 41.9513L69.9943 41.6161ZM69.7721 39.822L59.8581 38.5133L59.6301 40.2401L59.9994 41.9422L69.7721 39.822ZM20 36.3415C20 27.3163 27.3163 20 36.3414 20V0C16.2706 0 0 16.2706 0 36.3415H20ZM36.3414 52.6829C27.3163 52.6829 20 45.3666 20 36.3415H0C0 56.4123 16.2706 72.6829 36.3414 72.6829V52.6829ZM43.6585 52.6829H36.3414V72.6829H43.6585V52.6829ZM47.0733 52.3277C45.9806 52.5592 44.8395 52.6829 43.6585 52.6829V72.6829C46.2414 72.6829 48.772 72.4119 51.2197 71.8931L47.0733 52.3277ZM59.1463 62.1951C59.1474 62.2279 59.1474 62.2426 59.1472 62.2259C59.147 62.2059 59.1467 62.1662 59.1465 62.0874L39.1465 62.1335C39.147 62.3336 39.1483 62.5891 39.1575 62.8654L59.1463 62.1951ZM59.1463 62.1951L59.1463 62.1951L39.1575 62.8654C39.5103 73.3851 47.9563 81.8311 58.476 82.1839L59.1463 62.1951ZM59.5731 62.1951C59.3634 62.1951 59.2488 62.1951 59.1649 62.1946C59.0872 62.1941 59.0987 62.1935 59.1463 62.1951L58.4759 82.1839C58.8532 82.1965 59.2579 82.1951 59.5731 82.1951V62.1951ZM59.9999 62.1951C60.0475 62.1935 60.0591 62.1941 59.9814 62.1946C59.8974 62.1951 59.7828 62.1951 59.5731 62.1951V82.1951C59.8883 82.1951 60.293 82.1965 60.6703 82.1839L59.9999 62.1951ZM59.9999 62.1951L59.9999 62.1951L60.6703 82.1839C71.19 81.8311 79.6359 73.3851 79.9887 62.8654L59.9999 62.1951ZM59.9999 61.7683C59.9999 61.978 59.9999 62.0926 59.9994 62.1766C59.9989 62.2543 59.9983 62.2428 59.9999 62.1953L79.9887 62.8652C80.0013 62.488 79.9999 62.0835 79.9999 61.7683H59.9999ZM59.9999 42.378V61.7683H79.9999V42.378H59.9999ZM59.9999 41.9513C59.9983 41.9037 59.9989 41.8921 59.9994 41.9698C59.9999 42.0537 59.9999 42.1683 59.9999 42.378H79.9999C79.9999 42.0628 80.0014 41.6582 79.9887 41.2808L59.9999 41.9513ZM59.9994 41.9422C59.9992 41.941 59.9992 41.9407 59.9993 41.9417C59.9994 41.9427 59.9998 41.9458 59.9999 41.9512L79.9887 41.2809C79.9479 40.0634 79.7974 38.8664 79.5447 37.7017L59.9994 41.9422ZM60 36.3415C60 37.0826 59.9513 37.8072 59.8581 38.5133L79.6861 41.1306C79.8935 39.5591 80 37.9602 80 36.3415H60ZM43.6585 20C52.6837 20 60 27.3163 60 36.3415H80C80 16.2706 63.7294 0 43.6585 0V20ZM36.3414 20H43.6585V0H36.3414V20Z" fill="white" mask="url(#path-1-outside-1_8_45)"/>
<circle cx="31.2196" cy="36.3414" r="9.51219" fill="#380303"/>
<mask id="path-4-outside-2_8_45" maskUnits="userSpaceOnUse" x="7.31704" y="0" width="73" height="83" fill="black">
<rect fill="white" x="7.31704" width="73" height="83"/>
<path fill-rule="evenodd" clip-rule="evenodd" d="M43.6585 10C29.1105 10 17.317 21.7935 17.317 36.3415C17.317 50.8894 29.1105 62.6829 43.6585 62.6829C48.3061 62.6829 52.6726 61.4793 56.4632 59.3667V65.4268C56.4632 69.1648 59.4935 72.1951 63.2315 72.1951C66.9695 72.1951 69.9998 69.1648 69.9998 65.4268V38.7195C69.9998 38.4497 69.984 38.1835 69.9533 37.922C69.9842 37.3991 69.9999 36.8721 69.9999 36.3415C69.9999 21.7935 58.2065 10 43.6585 10Z"/>
</mask>
<path fill-rule="evenodd" clip-rule="evenodd" d="M43.6585 10C29.1105 10 17.317 21.7935 17.317 36.3415C17.317 50.8894 29.1105 62.6829 43.6585 62.6829C48.3061 62.6829 52.6726 61.4793 56.4632 59.3667V65.4268C56.4632 69.1648 59.4935 72.1951 63.2315 72.1951C66.9695 72.1951 69.9998 69.1648 69.9998 65.4268V38.7195C69.9998 38.4497 69.984 38.1835 69.9533 37.922C69.9842 37.3991 69.9999 36.8721 69.9999 36.3415C69.9999 21.7935 58.2065 10 43.6585 10Z" fill="black"/>
<path d="M56.4632 59.3667H66.4632V42.3455L51.5951 50.6316L56.4632 59.3667ZM69.9533 37.922L59.9708 37.3312L59.9187 38.2118L60.0215 39.0879L69.9533 37.922ZM27.317 36.3415C27.317 27.3163 34.6334 20 43.6585 20V0C23.5877 0 7.31704 16.2706 7.31704 36.3415H27.317ZM43.6585 52.6829C34.6334 52.6829 27.317 45.3666 27.317 36.3415H7.31704C7.31704 56.4123 23.5877 72.6829 43.6585 72.6829V52.6829ZM51.5951 50.6316C49.2546 51.936 46.5588 52.6829 43.6585 52.6829V72.6829C50.0534 72.6829 56.0906 71.0225 61.3313 68.1018L51.5951 50.6316ZM66.4632 65.4268V59.3667H46.4632V65.4268H66.4632ZM63.2315 62.1951C65.0163 62.1951 66.4632 63.642 66.4632 65.4268H46.4632C46.4632 74.6877 53.9706 82.1951 63.2315 82.1951V62.1951ZM59.9998 65.4268C59.9998 63.642 61.4467 62.1951 63.2315 62.1951V82.1951C72.4924 82.1951 79.9998 74.6877 79.9998 65.4268H59.9998ZM59.9998 38.7195V65.4268H79.9998V38.7195H59.9998ZM60.0215 39.0879C60.0069 38.9633 59.9998 38.8401 59.9998 38.7195H79.9998C79.9998 38.0592 79.9611 37.4038 79.8851 36.756L60.0215 39.0879ZM59.9999 36.3415C59.9999 36.6749 59.9901 37.0049 59.9708 37.3312L79.9358 38.5127C79.9784 37.7933 79.9999 37.0693 79.9999 36.3415H59.9999ZM43.6585 20C52.6836 20 59.9999 27.3163 59.9999 36.3415H79.9999C79.9999 16.2706 63.7293 0 43.6585 0V20Z" fill="white" mask="url(#path-4-outside-2_8_45)"/>
<circle cx="44.7561" cy="36.3414" r="9.51219" fill="white"/>
</svg>
